<svg width="524" height="83" viewBox="0 0 524 83" fill="none" xmlns="http://www.w3.org/2000/svg">
<path d="M9.464 0.488007H27.384V24.808H40.952V38.76H27.384V81H9.464V38.76H0.760002V24.808H9.464V0.488007Z" fill="#02233A"/>
<path d="M78.143 82.536C72.9377 82.536 68.2017 81.512 63.935 79.464C59.7537 77.3307 56.4257 74.088 53.951 69.736C51.4763 65.384 50.239 59.8373 50.239 53.096C50.239 46.7813 51.519 41.32 54.079 36.712C56.639 32.104 60.0097 28.5627 64.191 26.088C68.3723 23.528 72.8097 22.248 77.503 22.248C83.0497 22.248 87.231 23.1867 90.047 25.064C92.9483 26.856 95.3377 28.8613 97.215 31.08L96.447 33.256L98.111 25.064H114.751V81H96.831V68.84L98.239 72.68C98.0683 72.68 97.5563 73.192 96.703 74.216C95.8497 75.1547 94.5697 76.3067 92.863 77.672C91.2417 78.952 89.1937 80.0613 86.719 81C84.3297 82.024 81.471 82.536 78.143 82.536ZM83.263 67.944C85.3963 67.944 87.3163 67.6453 89.023 67.048C90.7297 66.3653 92.223 65.4267 93.503 64.232C94.783 62.952 95.8923 61.3733 96.831 59.496V45.8C96.1483 43.9227 95.1243 42.344 93.759 41.064C92.3937 39.6987 90.7723 38.6747 88.895 37.992C87.0177 37.224 84.927 36.84 82.623 36.84C80.063 36.84 77.6737 37.5227 75.455 38.888C73.3217 40.168 71.615 41.96 70.335 44.264C69.055 46.568 68.415 49.2133 68.415 52.2C68.415 55.1867 69.0977 57.8747 70.463 60.264C71.8283 62.6533 73.6203 64.5307 75.839 65.896C78.143 67.2613 80.6177 67.944 83.263 67.944Z" fill="#02233A"/>
<path d="M158.56 42.856L169.184 25.064H186.976L164.832 55.784L158.56 42.856ZM190.048 81H168.416L125.28 25.064H147.296L190.048 81ZM156.256 63.08L143.712 81H125.92L148.064 51.048L156.256 63.08Z" fill="#02233A"/>
<path d="M194.989 52.328C194.989 46.6107 196.312 41.4907 198.957 36.968C201.688 32.4453 205.485 28.904 210.349 26.344C215.213 23.6987 220.802 22.376 227.117 22.376C233.517 22.376 239.064 23.6987 243.757 26.344C248.45 28.904 252.034 32.4453 254.509 36.968C257.069 41.4907 258.349 46.6107 258.349 52.328C258.349 58.0453 257.069 63.208 254.509 67.816C252.034 72.3387 248.45 75.9227 243.757 78.568C239.064 81.2133 233.432 82.536 226.861 82.536C220.717 82.536 215.213 81.3413 210.349 78.952C205.57 76.5627 201.816 73.1067 199.085 68.584C196.354 64.0613 194.989 58.6427 194.989 52.328ZM213.037 52.456C213.037 55.3573 213.634 58.0027 214.829 60.392C216.024 62.696 217.645 64.5307 219.693 65.896C221.741 67.2613 224.045 67.944 226.605 67.944C229.421 67.944 231.853 67.2613 233.901 65.896C235.949 64.5307 237.528 62.696 238.637 60.392C239.746 58.0027 240.301 55.3573 240.301 52.456C240.301 49.4693 239.746 46.824 238.637 44.52C237.528 42.216 235.949 40.3813 233.901 39.016C231.853 37.6507 229.421 36.968 226.605 36.968C224.045 36.968 221.741 37.6507 219.693 39.016C217.645 40.3813 216.024 42.216 214.829 44.52C213.634 46.824 213.037 49.4693 213.037 52.456Z" fill="#02233A"/>
<path d="M296.191 82.152L262.655 25.064H283.903L302.975 63.72L291.967 63.336L308.479 25.064H328.447L296.703 82.152H296.191Z" fill="#02233A"/>
<path d="M360.018 82.536C354.813 82.536 350.077 81.512 345.81 79.464C341.629 77.3307 338.301 74.088 335.826 69.736C333.351 65.384 332.114 59.8373 332.114 53.096C332.114 46.7813 333.394 41.32 335.954 36.712C338.514 32.104 341.885 28.5627 346.066 26.088C350.247 23.528 354.685 22.248 359.378 22.248C364.925 22.248 369.106 23.1867 371.922 25.064C374.823 26.856 377.213 28.8613 379.09 31.08L378.322 33.256L379.986 25.064H396.626V81H378.706V68.84L380.114 72.68C379.943 72.68 379.431 73.192 378.578 74.216C377.725 75.1547 376.445 76.3067 374.738 77.672C373.117 78.952 371.069 80.0613 368.594 81C366.205 82.024 363.346 82.536 360.018 82.536ZM365.138 67.944C367.271 67.944 369.191 67.6453 370.898 67.048C372.605 66.3653 374.098 65.4267 375.378 64.232C376.658 62.952 377.767 61.3733 378.706 59.496V45.8C378.023 43.9227 376.999 42.344 375.634 41.064C374.269 39.6987 372.647 38.6747 370.77 37.992C368.893 37.224 366.802 36.84 364.498 36.84C361.938 36.84 359.549 37.5227 357.33 38.888C355.197 40.168 353.49 41.96 352.21 44.264C350.93 46.568 350.29 49.2133 350.29 52.2C350.29 55.1867 350.973 57.8747 352.338 60.264C353.703 62.6533 355.495 64.5307 357.714 65.896C360.018 67.2613 362.493 67.944 365.138 67.944Z" fill="#02233A"/>
<path d="M420.339 0.488007H438.259V24.808H451.827V38.76H438.259V81H420.339V38.76H411.635V24.808H420.339V0.488007Z" fill="#02233A"/>
<path d="M492.986 82.536C486.159 82.536 480.357 81.256 475.578 78.696C470.885 76.136 467.301 72.5947 464.826 68.072C462.351 63.5493 461.114 58.344 461.114 52.456C461.114 46.824 462.565 41.7467 465.466 37.224C468.367 32.7013 472.25 29.1173 477.114 26.472C481.978 23.7413 487.397 22.376 493.37 22.376C501.391 22.376 507.962 24.7227 513.082 29.416C518.287 34.024 521.658 40.7227 523.194 49.512L479.674 63.336L475.706 53.608L507.194 42.984L503.482 44.648C502.799 42.4293 501.562 40.5093 499.77 38.888C498.063 37.1813 495.461 36.328 491.962 36.328C489.317 36.328 486.97 36.968 484.922 38.248C482.959 39.4427 481.423 41.192 480.314 43.496C479.29 45.7147 478.778 48.36 478.778 51.432C478.778 54.9307 479.418 57.8747 480.698 60.264C481.978 62.568 483.727 64.3173 485.946 65.512C488.165 66.7067 490.639 67.304 493.37 67.304C495.333 67.304 497.21 66.9627 499.002 66.28C500.879 65.5973 502.714 64.7013 504.506 63.592L512.442 76.904C509.455 78.6107 506.213 79.976 502.714 81C499.301 82.024 496.058 82.536 492.986 82.536Z" fill="#02233A"/>
</svg>
